<svg xmlns="http://www.w3.org/2000/svg" viewBox="0 0 34.95 41.34"><defs><style>.cls-1{fill:#666;}</style></defs><title>book-user</title><g id="Layer_2" data-name="Layer 2"><g id="Layer_1-2" data-name="Layer 1"><path class="cls-1" d="M33.45,0H1.5A1.5,1.5,0,0,0,0,1.5V39.84a1.5,1.5,0,0,0,1.5,1.5h32a1.5,1.5,0,0,0,1.5-1.5V1.5A1.5,1.5,0,0,0,33.45,0Zm-16,11a4.91,4.91,0,1,1-4.9,4.91A4.91,4.91,0,0,1,17.47,11Zm7.81,18.41a1.12,1.12,0,0,1-1.2,1H10.87a1.12,1.12,0,0,1-1.21-1V26.93a6,6,0,0,1,2.28-4.6,1.29,1.29,0,0,1,1.31-.17,10.93,10.93,0,0,0,8.45,0,1.27,1.27,0,0,1,1.29.16h0a6,6,0,0,1,2.28,4.61Z"/></g></g></svg>