<svg xmlns="http://www.w3.org/2000/svg" viewBox="0 0 23.97 29.79"><defs><style>.cls-1{fill:#666;}</style></defs><title>user</title><g id="Layer_2" data-name="Layer 2"><g id="Layer_1-2" data-name="Layer 1"><circle class="cls-1" cx="11.99" cy="7.53" r="7.53"/><path class="cls-1" d="M24,24.5v3.74a1.72,1.72,0,0,1-1.85,1.55H1.85A1.72,1.72,0,0,1,0,28.24V24.5a9.2,9.2,0,0,1,3.5-7,2,2,0,0,1,2-.27A16.29,16.29,0,0,0,12,18.49a16.35,16.35,0,0,0,6.49-1.31,1.93,1.93,0,0,1,2,.25h0A9.22,9.22,0,0,1,24,24.5Z"/></g></g></svg>